<svg width="534" height="202" viewBox="0 0 534 202" fill="none" xmlns="http://www.w3.org/2000/svg">
<path d="M4.96875 135L2.0625 127.406H2.01562C2.07031 128.008 2.09766 128.723 2.09766 129.551V135H1.17773V126.434H2.67773L5.39062 133.5H5.4375L8.17383 126.434H9.66211V135H8.66602V129.481C8.66602 128.848 8.69336 128.16 8.74805 127.418H8.70117L5.77148 135H4.96875ZM17.4141 131.783C17.4141 132.83 17.1504 133.649 16.623 134.238C16.0957 134.824 15.3672 135.117 14.4375 135.117C13.8633 135.117 13.3535 134.983 12.9082 134.713C12.4629 134.443 12.1191 134.057 11.877 133.553C11.6348 133.049 11.5137 132.459 11.5137 131.783C11.5137 130.736 11.7754 129.922 12.2988 129.34C12.8223 128.754 13.5488 128.461 14.4785 128.461C15.377 128.461 16.0898 128.76 16.6172 129.358C17.1484 129.955 17.4141 130.764 17.4141 131.783ZM12.5215 131.783C12.5215 132.604 12.6855 133.229 13.0137 133.658C13.3418 134.088 13.8242 134.303 14.4609 134.303C15.0977 134.303 15.5801 134.09 15.9082 133.664C16.2402 133.234 16.4062 132.608 16.4062 131.783C16.4062 130.967 16.2402 130.348 15.9082 129.926C15.5801 129.5 15.0938 129.287 14.4492 129.287C13.8125 129.287 13.332 129.496 13.0078 129.914C12.6836 130.332 12.5215 130.955 12.5215 131.783ZM20.5312 135L18.0938 128.578H19.1367L20.5195 132.387C20.832 133.277 21.0156 133.856 21.0703 134.121H21.1172C21.1602 133.914 21.2949 133.486 21.5215 132.838C21.752 132.186 22.2656 130.766 23.0625 128.578H24.1055L21.668 135H20.5312ZM26.1094 135H25.1367V128.578H26.1094V135ZM25.0547 126.838C25.0547 126.615 25.1094 126.453 25.2188 126.352C25.3281 126.246 25.4648 126.193 25.6289 126.193C25.7852 126.193 25.9199 126.246 26.0332 126.352C26.1465 126.457 26.2031 126.619 26.2031 126.838C26.2031 127.057 26.1465 127.221 26.0332 127.33C25.9199 127.436 25.7852 127.488 25.6289 127.488C25.4648 127.488 25.3281 127.436 25.2188 127.33C25.1094 127.221 25.0547 127.057 25.0547 126.838ZM32.5664 135V130.846C32.5664 130.322 32.4473 129.932 32.209 129.674C31.9707 129.416 31.5977 129.287 31.0898 129.287C30.418 129.287 29.9258 129.469 29.6133 129.832C29.3008 130.195 29.1445 130.795 29.1445 131.631V135H28.1719V128.578H28.9629L29.1211 129.457H29.168C29.3672 129.141 29.6465 128.897 30.0059 128.725C30.3652 128.549 30.7656 128.461 31.207 128.461C31.9805 128.461 32.5625 128.649 32.9531 129.024C33.3438 129.395 33.5391 129.99 33.5391 130.811V135H32.5664ZM40.7988 128.578V129.193L39.6094 129.334C39.7188 129.471 39.8164 129.651 39.9023 129.873C39.9883 130.092 40.0312 130.34 40.0312 130.617C40.0312 131.246 39.8164 131.748 39.3867 132.123C38.957 132.498 38.3672 132.686 37.6172 132.686C37.4258 132.686 37.2461 132.67 37.0781 132.639C36.6641 132.858 36.457 133.133 36.457 133.465C36.457 133.641 36.5293 133.772 36.6738 133.858C36.8184 133.94 37.0664 133.981 37.418 133.981H38.5547C39.25 133.981 39.7832 134.127 40.1543 134.42C40.5293 134.713 40.7168 135.139 40.7168 135.697C40.7168 136.408 40.4316 136.949 39.8613 137.32C39.291 137.695 38.459 137.883 37.3652 137.883C36.5254 137.883 35.877 137.727 35.4199 137.414C34.9668 137.102 34.7402 136.66 34.7402 136.09C34.7402 135.699 34.8652 135.361 35.1152 135.076C35.3652 134.791 35.7168 134.598 36.1699 134.496C36.0059 134.422 35.8672 134.307 35.7539 134.151C35.6445 133.994 35.5898 133.813 35.5898 133.606C35.5898 133.371 35.6523 133.166 35.7773 132.99C35.9023 132.815 36.0996 132.645 36.3691 132.481C36.0371 132.344 35.7656 132.111 35.5547 131.783C35.3477 131.455 35.2441 131.08 35.2441 130.658C35.2441 129.955 35.4551 129.414 35.877 129.035C36.2988 128.652 36.8965 128.461 37.6699 128.461C38.0059 128.461 38.3086 128.5 38.5781 128.578H40.7988ZM35.6777 136.078C35.6777 136.426 35.8242 136.69 36.1172 136.869C36.4102 137.049 36.8301 137.139 37.377 137.139C38.1934 137.139 38.7969 137.016 39.1875 136.77C39.582 136.527 39.7793 136.197 39.7793 135.779C39.7793 135.432 39.6719 135.19 39.457 135.053C39.2422 134.92 38.8379 134.854 38.2441 134.854H37.0781C36.6367 134.854 36.293 134.959 36.0469 135.17C35.8008 135.381 35.6777 135.684 35.6777 136.078ZM36.2051 130.635C36.2051 131.084 36.332 131.424 36.5859 131.654C36.8398 131.885 37.1934 132 37.6465 132C38.5957 132 39.0703 131.539 39.0703 130.617C39.0703 129.652 38.5898 129.17 37.6289 129.17C37.1719 129.17 36.8203 129.293 36.5742 129.539C36.3281 129.785 36.2051 130.151 36.2051 130.635ZM49.6055 134.139H49.5527C49.1035 134.791 48.4316 135.117 47.5371 135.117C46.6973 135.117 46.043 134.83 45.5742 134.256C45.1094 133.682 44.877 132.865 44.877 131.807C44.877 130.748 45.1113 129.926 45.5801 129.34C46.0488 128.754 46.7012 128.461 47.5371 128.461C48.4082 128.461 49.0762 128.777 49.541 129.41H49.6172L49.5762 128.947L49.5527 128.496V125.883H50.5254V135H49.7344L49.6055 134.139ZM47.6602 134.303C48.3242 134.303 48.8047 134.123 49.1016 133.764C49.4023 133.401 49.5527 132.817 49.5527 132.012V131.807C49.5527 130.897 49.4004 130.248 49.0957 129.861C48.7949 129.471 48.3125 129.276 47.6484 129.276C47.0781 129.276 46.6406 129.498 46.3359 129.943C46.0352 130.385 45.8848 131.01 45.8848 131.818C45.8848 132.639 46.0352 133.258 46.3359 133.676C46.6367 134.094 47.0781 134.303 47.6602 134.303ZM53.5664 135H52.5938V128.578H53.5664V135ZM52.5117 126.838C52.5117 126.615 52.5664 126.453 52.6758 126.352C52.7852 126.246 52.9219 126.193 53.0859 126.193C53.2422 126.193 53.377 126.246 53.4902 126.352C53.6035 126.457 53.6602 126.619 53.6602 126.838C53.6602 127.057 53.6035 127.221 53.4902 127.33C53.377 127.436 53.2422 127.488 53.0859 127.488C52.9219 127.488 52.7852 127.436 52.6758 127.33C52.5664 127.221 52.5117 127.057 52.5117 126.838ZM59.7715 133.248C59.7715 133.846 59.5488 134.307 59.1035 134.631C58.6582 134.955 58.0332 135.117 57.2285 135.117C56.377 135.117 55.7129 134.983 55.2363 134.713V133.811C55.5449 133.967 55.875 134.09 56.2266 134.18C56.582 134.27 56.9238 134.315 57.252 134.315C57.7598 134.315 58.1504 134.234 58.4238 134.074C58.6973 133.91 58.834 133.662 58.834 133.33C58.834 133.08 58.7246 132.867 58.5059 132.692C58.291 132.512 57.8691 132.301 57.2402 132.059C56.6426 131.836 56.2168 131.643 55.9629 131.479C55.7129 131.311 55.5254 131.121 55.4004 130.91C55.2793 130.699 55.2188 130.447 55.2188 130.154C55.2188 129.631 55.4316 129.219 55.8574 128.918C56.2832 128.613 56.8672 128.461 57.6094 128.461C58.3008 128.461 58.9766 128.602 59.6367 128.883L59.291 129.674C58.6465 129.408 58.0625 129.276 57.5391 129.276C57.0781 129.276 56.7305 129.348 56.4961 129.492C56.2617 129.637 56.1445 129.836 56.1445 130.09C56.1445 130.262 56.1875 130.408 56.2734 130.529C56.3633 130.651 56.5059 130.766 56.7012 130.875C56.8965 130.984 57.2715 131.143 57.8262 131.35C58.5879 131.627 59.1016 131.906 59.3672 132.188C59.6367 132.469 59.7715 132.822 59.7715 133.248ZM63.4336 134.315C63.6055 134.315 63.7715 134.303 63.9316 134.279C64.0918 134.252 64.2188 134.225 64.3125 134.197V134.942C64.207 134.992 64.0508 135.033 63.8438 135.065C63.6406 135.1 63.457 135.117 63.293 135.117C62.0508 135.117 61.4297 134.463 61.4297 133.154V129.334H60.5098V128.865L61.4297 128.461L61.8398 127.09H62.4023V128.578H64.2656V129.334H62.4023V133.113C62.4023 133.5 62.4941 133.797 62.6777 134.004C62.8613 134.211 63.1133 134.315 63.4336 134.315ZM69.5508 135L69.3574 134.086H69.3105C68.9902 134.488 68.6699 134.762 68.3496 134.906C68.0332 135.047 67.6367 135.117 67.1602 135.117C66.5234 135.117 66.0234 134.953 65.6602 134.625C65.3008 134.297 65.1211 133.83 65.1211 133.225C65.1211 131.928 66.1582 131.248 68.2324 131.186L69.3223 131.151V130.752C69.3223 130.248 69.2129 129.877 68.9941 129.639C68.7793 129.397 68.4336 129.276 67.957 129.276C67.4219 129.276 66.8164 129.44 66.1406 129.768L65.8418 129.024C66.1582 128.852 66.5039 128.717 66.8789 128.619C67.2578 128.522 67.6367 128.473 68.0156 128.473C68.7812 128.473 69.3477 128.643 69.7148 128.983C70.0859 129.322 70.2715 129.867 70.2715 130.617V135H69.5508ZM67.3535 134.315C67.959 134.315 68.4336 134.149 68.7773 133.817C69.125 133.484 69.2988 133.02 69.2988 132.422V131.842L68.3262 131.883C67.5527 131.91 66.9941 132.031 66.6504 132.246C66.3105 132.457 66.1406 132.787 66.1406 133.236C66.1406 133.588 66.2461 133.856 66.457 134.039C66.6719 134.223 66.9707 134.315 67.3535 134.315ZM76.6758 135V130.846C76.6758 130.322 76.5566 129.932 76.3184 129.674C76.0801 129.416 75.707 129.287 75.1992 129.287C74.5273 129.287 74.0352 129.469 73.7227 129.832C73.4102 130.195 73.2539 130.795 73.2539 131.631V135H72.2812V128.578H73.0723L73.2305 129.457H73.2773C73.4766 129.141 73.7559 128.897 74.1152 128.725C74.4746 128.549 74.875 128.461 75.3164 128.461C76.0898 128.461 76.6719 128.649 77.0625 129.024C77.4531 129.395 77.6484 129.99 77.6484 130.811V135H76.6758ZM82.2188 135.117C81.2891 135.117 80.5684 134.832 80.0566 134.262C79.5488 133.688 79.2949 132.877 79.2949 131.83C79.2949 130.756 79.5527 129.926 80.0684 129.34C80.5879 128.754 81.3262 128.461 82.2832 128.461C82.5918 128.461 82.9004 128.494 83.209 128.561C83.5176 128.627 83.7598 128.705 83.9355 128.795L83.6367 129.621C83.4219 129.535 83.1875 129.465 82.9336 129.41C82.6797 129.352 82.4551 129.322 82.2598 129.322C80.9551 129.322 80.3027 130.154 80.3027 131.818C80.3027 132.608 80.4609 133.213 80.7773 133.635C81.0977 134.057 81.5703 134.268 82.1953 134.268C82.7305 134.268 83.2793 134.152 83.8418 133.922V134.783C83.4121 135.006 82.8711 135.117 82.2188 135.117ZM88.084 135.117C87.1348 135.117 86.3848 134.828 85.834 134.25C85.2871 133.672 85.0137 132.869 85.0137 131.842C85.0137 130.807 85.2676 129.984 85.7754 129.375C86.2871 128.766 86.9727 128.461 87.832 128.461C88.6367 128.461 89.2734 128.727 89.7422 129.258C90.2109 129.785 90.4453 130.483 90.4453 131.35V131.965H86.0215C86.041 132.719 86.2305 133.291 86.5898 133.682C86.9531 134.072 87.4629 134.268 88.1191 134.268C88.8105 134.268 89.4941 134.123 90.1699 133.834V134.701C89.8262 134.85 89.5 134.955 89.1914 135.018C88.8867 135.084 88.5176 135.117 88.084 135.117ZM87.8203 129.276C87.3047 129.276 86.8926 129.443 86.584 129.779C86.2793 130.115 86.0996 130.58 86.0449 131.174H89.4023C89.4023 130.561 89.2656 130.092 88.9922 129.768C88.7188 129.44 88.3281 129.276 87.8203 129.276ZM99.6211 135V130.846C99.6211 130.322 99.502 129.932 99.2637 129.674C99.0254 129.416 98.6523 129.287 98.1445 129.287C97.4688 129.287 96.9746 129.471 96.6621 129.838C96.3535 130.205 96.1992 130.807 96.1992 131.643V135H95.2266V125.883H96.1992V128.643C96.1992 128.975 96.1836 129.25 96.1523 129.469H96.2109C96.4023 129.16 96.6738 128.918 97.0254 128.742C97.3809 128.563 97.7852 128.473 98.2383 128.473C99.0234 128.473 99.6113 128.66 100.002 129.035C100.396 129.406 100.594 129.998 100.594 130.811V135H99.6211ZM106.547 135L106.354 134.086H106.307C105.986 134.488 105.666 134.762 105.346 134.906C105.029 135.047 104.633 135.117 104.156 135.117C103.52 135.117 103.02 134.953 102.656 134.625C102.297 134.297 102.117 133.83 102.117 133.225C102.117 131.928 103.154 131.248 105.229 131.186L106.318 131.151V130.752C106.318 130.248 106.209 129.877 105.99 129.639C105.775 129.397 105.43 129.276 104.953 129.276C104.418 129.276 103.812 129.44 103.137 129.768L102.838 129.024C103.154 128.852 103.5 128.717 103.875 128.619C104.254 128.522 104.633 128.473 105.012 128.473C105.777 128.473 106.344 128.643 106.711 128.983C107.082 129.322 107.268 129.867 107.268 130.617V135H106.547ZM104.35 134.315C104.955 134.315 105.43 134.149 105.773 133.817C106.121 133.484 106.295 133.02 106.295 132.422V131.842L105.322 131.883C104.549 131.91 103.99 132.031 103.646 132.246C103.307 132.457 103.137 132.787 103.137 133.236C103.137 133.588 103.242 133.856 103.453 134.039C103.668 134.223 103.967 134.315 104.35 134.315ZM113.42 133.248C113.42 133.846 113.197 134.307 112.752 134.631C112.307 134.955 111.682 135.117 110.877 135.117C110.025 135.117 109.361 134.983 108.885 134.713V133.811C109.193 133.967 109.523 134.09 109.875 134.18C110.23 134.27 110.572 134.315 110.9 134.315C111.408 134.315 111.799 134.234 112.072 134.074C112.346 133.91 112.482 133.662 112.482 133.33C112.482 133.08 112.373 132.867 112.154 132.692C111.939 132.512 111.518 132.301 110.889 132.059C110.291 131.836 109.865 131.643 109.611 131.479C109.361 131.311 109.174 131.121 109.049 130.91C108.928 130.699 108.867 130.447 108.867 130.154C108.867 129.631 109.08 129.219 109.506 128.918C109.932 128.613 110.516 128.461 111.258 128.461C111.949 128.461 112.625 128.602 113.285 128.883L112.939 129.674C112.295 129.408 111.711 129.276 111.188 129.276C110.727 129.276 110.379 129.348 110.145 129.492C109.91 129.637 109.793 129.836 109.793 130.09C109.793 130.262 109.836 130.408 109.922 130.529C110.012 130.651 110.154 130.766 110.35 130.875C110.545 130.984 110.92 131.143 111.475 131.35C112.236 131.627 112.75 131.906 113.016 132.188C113.285 132.469 113.42 132.822 113.42 133.248ZM3.96094 152.461C4.24609 152.461 4.50195 152.484 4.72852 152.531L4.59375 153.434C4.32812 153.375 4.09375 153.346 3.89062 153.346C3.37109 153.346 2.92578 153.557 2.55469 153.979C2.1875 154.401 2.00391 154.926 2.00391 155.555V159H1.03125V152.578H1.83398L1.94531 153.768H1.99219C2.23047 153.35 2.51758 153.027 2.85352 152.801C3.18945 152.574 3.55859 152.461 3.96094 152.461ZM8.64258 159.117C7.69336 159.117 6.94336 158.828 6.39258 158.25C5.8457 157.672 5.57227 156.869 5.57227 155.842C5.57227 154.807 5.82617 153.984 6.33398 153.375C6.8457 152.766 7.53125 152.461 8.39062 152.461C9.19531 152.461 9.83203 152.727 10.3008 153.258C10.7695 153.785 11.0039 154.483 11.0039 155.35V155.965H6.58008C6.59961 156.719 6.78906 157.291 7.14844 157.682C7.51172 158.072 8.02148 158.268 8.67773 158.268C9.36914 158.268 10.0527 158.123 10.7285 157.834V158.701C10.3848 158.85 10.0586 158.955 9.75 159.018C9.44531 159.084 9.07617 159.117 8.64258 159.117ZM8.37891 153.276C7.86328 153.276 7.45117 153.443 7.14258 153.779C6.83789 154.115 6.6582 154.58 6.60352 155.174H9.96094C9.96094 154.561 9.82422 154.092 9.55078 153.768C9.27734 153.44 8.88672 153.276 8.37891 153.276ZM13.582 152.578V156.744C13.582 157.268 13.7012 157.658 13.9395 157.916C14.1777 158.174 14.5508 158.303 15.0586 158.303C15.7305 158.303 16.2207 158.119 16.5293 157.752C16.8418 157.385 16.998 156.785 16.998 155.953V152.578H17.9707V159H17.168L17.0273 158.139H16.9746C16.7754 158.455 16.498 158.697 16.1426 158.865C15.791 159.033 15.3887 159.117 14.9355 159.117C14.1543 159.117 13.5684 158.932 13.1777 158.561C12.791 158.19 12.5977 157.596 12.5977 156.779V152.578H13.582ZM22.6055 159.117C21.6758 159.117 20.9551 158.832 20.4434 158.262C19.9355 157.688 19.6816 156.877 19.6816 155.83C19.6816 154.756 19.9395 153.926 20.4551 153.34C20.9746 152.754 21.7129 152.461 22.6699 152.461C22.9785 152.461 23.2871 152.494 23.5957 152.561C23.9043 152.627 24.1465 152.705 24.3223 152.795L24.0234 153.621C23.8086 153.535 23.5742 153.465 23.3203 153.41C23.0664 153.352 22.8418 153.322 22.6465 153.322C21.3418 153.322 20.6895 154.154 20.6895 155.818C20.6895 156.608 20.8477 157.213 21.1641 157.635C21.4844 158.057 21.957 158.268 22.582 158.268C23.1172 158.268 23.666 158.152 24.2285 157.922V158.783C23.7988 159.006 23.2578 159.117 22.6055 159.117ZM28.4707 159.117C27.5215 159.117 26.7715 158.828 26.2207 158.25C25.6738 157.672 25.4004 156.869 25.4004 155.842C25.4004 154.807 25.6543 153.984 26.1621 153.375C26.6738 152.766 27.3594 152.461 28.2188 152.461C29.0234 152.461 29.6602 152.727 30.1289 153.258C30.5977 153.785 30.832 154.483 30.832 155.35V155.965H26.4082C26.4277 156.719 26.6172 157.291 26.9766 157.682C27.3398 158.072 27.8496 158.268 28.5059 158.268C29.1973 158.268 29.8809 158.123 30.5566 157.834V158.701C30.2129 158.85 29.8867 158.955 29.5781 159.018C29.2734 159.084 28.9043 159.117 28.4707 159.117ZM28.207 153.276C27.6914 153.276 27.2793 153.443 26.9707 153.779C26.666 154.115 26.4863 154.58 26.4316 155.174H29.7891C29.7891 154.561 29.6523 154.092 29.3789 153.768C29.1055 153.44 28.7148 153.276 28.207 153.276ZM36.8672 158.139H36.8145C36.3652 158.791 35.6934 159.117 34.7988 159.117C33.959 159.117 33.3047 158.83 32.8359 158.256C32.3711 157.682 32.1387 156.865 32.1387 155.807C32.1387 154.748 32.373 153.926 32.8418 153.34C33.3105 152.754 33.9629 152.461 34.7988 152.461C35.6699 152.461 36.3379 152.777 36.8027 153.41H36.8789L36.8379 152.947L36.8145 152.496V149.883H37.7871V159H36.9961L36.8672 158.139ZM34.9219 158.303C35.5859 158.303 36.0664 158.123 36.3633 157.764C36.6641 157.401 36.8145 156.817 36.8145 156.012V155.807C36.8145 154.897 36.6621 154.248 36.3574 153.861C36.0566 153.471 35.5742 153.276 34.9102 153.276C34.3398 153.276 33.9023 153.498 33.5977 153.943C33.2969 154.385 33.1465 155.01 33.1465 155.818C33.1465 156.639 33.2969 157.258 33.5977 157.676C33.8984 158.094 34.3398 158.303 34.9219 158.303ZM47.1152 157.248C47.1152 157.846 46.8926 158.307 46.4473 158.631C46.002 158.955 45.377 159.117 44.5723 159.117C43.7207 159.117 43.0566 158.983 42.5801 158.713V157.811C42.8887 157.967 43.2188 158.09 43.5703 158.18C43.9258 158.27 44.2676 158.315 44.5957 158.315C45.1035 158.315 45.4941 158.234 45.7676 158.074C46.041 157.91 46.1777 157.662 46.1777 157.33C46.1777 157.08 46.0684 156.867 45.8496 156.692C45.6348 156.512 45.2129 156.301 44.584 156.059C43.9863 155.836 43.5605 155.643 43.3066 155.479C43.0566 155.311 42.8691 155.121 42.7441 154.91C42.623 154.699 42.5625 154.447 42.5625 154.154C42.5625 153.631 42.7754 153.219 43.2012 152.918C43.627 152.613 44.2109 152.461 44.9531 152.461C45.6445 152.461 46.3203 152.602 46.9805 152.883L46.6348 153.674C45.9902 153.408 45.4062 153.276 44.8828 153.276C44.4219 153.276 44.0742 153.348 43.8398 153.492C43.6055 153.637 43.4883 153.836 43.4883 154.09C43.4883 154.262 43.5312 154.408 43.6172 154.529C43.707 154.651 43.8496 154.766 44.0449 154.875C44.2402 154.984 44.6152 155.143 45.1699 155.35C45.9316 155.627 46.4453 155.906 46.7109 156.188C46.9805 156.469 47.1152 156.822 47.1152 157.248ZM49.6172 152.578V156.744C49.6172 157.268 49.7363 157.658 49.9746 157.916C50.2129 158.174 50.5859 158.303 51.0938 158.303C51.7656 158.303 52.2559 158.119 52.5645 157.752C52.877 157.385 53.0332 156.785 53.0332 155.953V152.578H54.0059V159H53.2031L53.0625 158.139H53.0098C52.8105 158.455 52.5332 158.697 52.1777 158.865C51.8262 159.033 51.4238 159.117 50.9707 159.117C50.1895 159.117 49.6035 158.932 49.2129 158.561C48.8262 158.19 48.6328 157.596 48.6328 156.779V152.578H49.6172ZM59.0625 152.473C59.9062 152.473 60.5605 152.762 61.0254 153.34C61.4941 153.914 61.7285 154.729 61.7285 155.783C61.7285 156.838 61.4922 157.658 61.0195 158.244C60.5508 158.826 59.8984 159.117 59.0625 159.117C58.6445 159.117 58.2617 159.041 57.9141 158.889C57.5703 158.733 57.2812 158.494 57.0469 158.174H56.9766L56.7715 159H56.0742V149.883H57.0469V152.098C57.0469 152.594 57.0312 153.039 57 153.434H57.0469C57.5 152.793 58.1719 152.473 59.0625 152.473ZM58.9219 153.287C58.2578 153.287 57.7793 153.479 57.4863 153.861C57.1934 154.24 57.0469 154.881 57.0469 155.783C57.0469 156.686 57.1973 157.332 57.498 157.723C57.7988 158.109 58.2812 158.303 58.9453 158.303C59.543 158.303 59.9883 158.086 60.2812 157.652C60.5742 157.215 60.7207 156.588 60.7207 155.772C60.7207 154.936 60.5742 154.313 60.2812 153.902C59.9883 153.492 59.5352 153.287 58.9219 153.287ZM67.5762 157.248C67.5762 157.846 67.3535 158.307 66.9082 158.631C66.4629 158.955 65.8379 159.117 65.0332 159.117C64.1816 159.117 63.5176 158.983 63.041 158.713V157.811C63.3496 157.967 63.6797 158.09 64.0312 158.18C64.3867 158.27 64.7285 158.315 65.0566 158.315C65.5645 158.315 65.9551 158.234 66.2285 158.074C66.502 157.91 66.6387 157.662 66.6387 157.33C66.6387 157.08 66.5293 156.867 66.3105 156.692C66.0957 156.512 65.6738 156.301 65.0449 156.059C64.4473 155.836 64.0215 155.643 63.7676 155.479C63.5176 155.311 63.3301 155.121 63.2051 154.91C63.084 154.699 63.0234 154.447 63.0234 154.154C63.0234 153.631 63.2363 153.219 63.6621 152.918C64.0879 152.613 64.6719 152.461 65.4141 152.461C66.1055 152.461 66.7812 152.602 67.4414 152.883L67.0957 153.674C66.4512 153.408 65.8672 153.276 65.3438 153.276C64.8828 153.276 64.5352 153.348 64.3008 153.492C64.0664 153.637 63.9492 153.836 63.9492 154.09C63.9492 154.262 63.9922 154.408 64.0781 154.529C64.168 154.651 64.3105 154.766 64.5059 154.875C64.7012 154.984 65.0762 155.143 65.6309 155.35C66.3926 155.627 66.9062 155.906 67.1719 156.188C67.4414 156.469 67.5762 156.822 67.5762 157.248ZM71.2383 158.315C71.4102 158.315 71.5762 158.303 71.7363 158.279C71.8965 158.252 72.0234 158.225 72.1172 158.197V158.942C72.0117 158.992 71.8555 159.033 71.6484 159.065C71.4453 159.1 71.2617 159.117 71.0977 159.117C69.8555 159.117 69.2344 158.463 69.2344 157.154V153.334H68.3145V152.865L69.2344 152.461L69.6445 151.09H70.207V152.578H72.0703V153.334H70.207V157.113C70.207 157.5 70.2988 157.797 70.4824 158.004C70.666 158.211 70.918 158.315 71.2383 158.315ZM77.3555 159L77.1621 158.086H77.1152C76.7949 158.488 76.4746 158.762 76.1543 158.906C75.8379 159.047 75.4414 159.117 74.9648 159.117C74.3281 159.117 73.8281 158.953 73.4648 158.625C73.1055 158.297 72.9258 157.83 72.9258 157.225C72.9258 155.928 73.9629 155.248 76.0371 155.186L77.127 155.151V154.752C77.127 154.248 77.0176 153.877 76.7988 153.639C76.584 153.397 76.2383 153.276 75.7617 153.276C75.2266 153.276 74.6211 153.44 73.9453 153.768L73.6465 153.024C73.9629 152.852 74.3086 152.717 74.6836 152.619C75.0625 152.522 75.4414 152.473 75.8203 152.473C76.5859 152.473 77.1523 152.643 77.5195 152.983C77.8906 153.322 78.0762 153.867 78.0762 154.617V159H77.3555ZM75.1582 158.315C75.7637 158.315 76.2383 158.149 76.582 157.817C76.9297 157.484 77.1035 157.02 77.1035 156.422V155.842L76.1309 155.883C75.3574 155.91 74.7988 156.031 74.4551 156.246C74.1152 156.457 73.9453 156.787 73.9453 157.236C73.9453 157.588 74.0508 157.856 74.2617 158.039C74.4766 158.223 74.7754 158.315 75.1582 158.315ZM84.4805 159V154.846C84.4805 154.322 84.3613 153.932 84.123 153.674C83.8848 153.416 83.5117 153.287 83.0039 153.287C82.332 153.287 81.8398 153.469 81.5273 153.832C81.2148 154.195 81.0586 154.795 81.0586 155.631V159H80.0859V152.578H80.877L81.0352 153.457H81.082C81.2812 153.141 81.5605 152.897 81.9199 152.725C82.2793 152.549 82.6797 152.461 83.1211 152.461C83.8945 152.461 84.4766 152.649 84.8672 153.024C85.2578 153.395 85.4531 153.99 85.4531 154.811V159H84.4805ZM89.5312 158.315C89.7031 158.315 89.8691 158.303 90.0293 158.279C90.1895 158.252 90.3164 158.225 90.4102 158.197V158.942C90.3047 158.992 90.1484 159.033 89.9414 159.065C89.7383 159.1 89.5547 159.117 89.3906 159.117C88.1484 159.117 87.5273 158.463 87.5273 157.154V153.334H86.6074V152.865L87.5273 152.461L87.9375 151.09H88.5V152.578H90.3633V153.334H88.5V157.113C88.5 157.5 88.5918 157.797 88.7754 158.004C88.959 158.211 89.2109 158.315 89.5312 158.315ZM92.6719 159H91.6992V152.578H92.6719V159ZM91.6172 150.838C91.6172 150.615 91.6719 150.453 91.7812 150.352C91.8906 150.246 92.0273 150.193 92.1914 150.193C92.3477 150.193 92.4824 150.246 92.5957 150.352C92.709 150.457 92.7656 150.619 92.7656 150.838C92.7656 151.057 92.709 151.221 92.5957 151.33C92.4824 151.436 92.3477 151.488 92.1914 151.488C92.0273 151.488 91.8906 151.436 91.7812 151.33C91.6719 151.221 91.6172 151.057 91.6172 150.838ZM98.6836 159L98.4902 158.086H98.4434C98.123 158.488 97.8027 158.762 97.4824 158.906C97.166 159.047 96.7695 159.117 96.293 159.117C95.6562 159.117 95.1562 158.953 94.793 158.625C94.4336 158.297 94.2539 157.83 94.2539 157.225C94.2539 155.928 95.291 155.248 97.3652 155.186L98.4551 155.151V154.752C98.4551 154.248 98.3457 153.877 98.127 153.639C97.9121 153.397 97.5664 153.276 97.0898 153.276C96.5547 153.276 95.9492 153.44 95.2734 153.768L94.9746 153.024C95.291 152.852 95.6367 152.717 96.0117 152.619C96.3906 152.522 96.7695 152.473 97.1484 152.473C97.9141 152.473 98.4805 152.643 98.8477 152.983C99.2188 153.322 99.4043 153.867 99.4043 154.617V159H98.6836ZM96.4863 158.315C97.0918 158.315 97.5664 158.149 97.9102 157.817C98.2578 157.484 98.4316 157.02 98.4316 156.422V155.842L97.459 155.883C96.6855 155.91 96.127 156.031 95.7832 156.246C95.4434 156.457 95.2734 156.787 95.2734 157.236C95.2734 157.588 95.3789 157.856 95.5898 158.039C95.8047 158.223 96.1035 158.315 96.4863 158.315ZM102.387 159H101.414V149.883H102.387V159ZM105.422 159H104.449V149.883H105.422V159ZM106.465 152.578H107.508L108.914 156.24C109.223 157.076 109.414 157.68 109.488 158.051H109.535C109.586 157.852 109.691 157.512 109.852 157.031C110.016 156.547 110.547 155.063 111.445 152.578H112.488L109.729 159.891C109.455 160.613 109.135 161.125 108.768 161.426C108.404 161.731 107.957 161.883 107.426 161.883C107.129 161.883 106.836 161.85 106.547 161.783V161.004C106.762 161.051 107.002 161.074 107.268 161.074C107.936 161.074 108.412 160.699 108.697 159.949L109.055 159.035L106.465 152.578Z" fill="black"/>
<path d="M25.125 100.984V97.8594H33.1562V100.984H25.125ZM35.7812 98.2656C35.7812 89.3281 39.4219 84.8594 46.7031 84.8594C47.849 84.8594 48.8177 84.9479 49.6094 85.125V88.1875C48.8177 87.9583 47.901 87.8438 46.8594 87.8438C44.4115 87.8438 42.5729 88.5 41.3438 89.8125C40.1146 91.125 39.4479 93.2292 39.3438 96.125H39.5312C40.0208 95.2812 40.7083 94.6302 41.5938 94.1719C42.4792 93.7031 43.5208 93.4688 44.7188 93.4688C46.7917 93.4688 48.4062 94.1042 49.5625 95.375C50.7188 96.6458 51.2969 98.3698 51.2969 100.547C51.2969 102.943 50.625 104.839 49.2812 106.234C47.9479 107.62 46.125 108.312 43.8125 108.312C42.1771 108.312 40.7552 107.922 39.5469 107.141C38.3385 106.349 37.4062 105.203 36.75 103.703C36.1042 102.193 35.7812 100.38 35.7812 98.2656ZM43.75 105.281C45.0104 105.281 45.9792 104.875 46.6562 104.062C47.3438 103.25 47.6875 102.089 47.6875 100.578C47.6875 99.2656 47.3646 98.2344 46.7188 97.4844C46.0833 96.7344 45.125 96.3594 43.8438 96.3594C43.0521 96.3594 42.3229 96.5312 41.6562 96.875C40.9896 97.2083 40.4635 97.6719 40.0781 98.2656C39.6927 98.849 39.5 99.4479 39.5 100.062C39.5 101.531 39.8958 102.771 40.6875 103.781C41.4896 104.781 42.5104 105.281 43.75 105.281ZM69.4844 96.5781C69.4844 100.547 68.8438 103.495 67.5625 105.422C66.2917 107.349 64.3438 108.312 61.7188 108.312C59.1771 108.312 57.25 107.318 55.9375 105.328C54.625 103.339 53.9688 100.422 53.9688 96.5781C53.9688 92.5469 54.6042 89.5781 55.875 87.6719C57.1562 85.7552 59.1042 84.7969 61.7188 84.7969C64.2708 84.7969 66.2031 85.7969 67.5156 87.7969C68.8281 89.7969 69.4844 92.724 69.4844 96.5781ZM57.6875 96.5781C57.6875 99.6927 58.0052 101.917 58.6406 103.25C59.2865 104.583 60.3125 105.25 61.7188 105.25C63.125 105.25 64.151 104.573 64.7969 103.219C65.4531 101.865 65.7812 99.651 65.7812 96.5781C65.7812 93.5156 65.4531 91.3021 64.7969 89.9375C64.151 88.5625 63.125 87.875 61.7188 87.875C60.3125 87.875 59.2865 88.5469 58.6406 89.8906C58.0052 91.2344 57.6875 93.4635 57.6875 96.5781ZM75.2344 92C75.2344 93.5521 75.3854 94.7083 75.6875 95.4688C75.9896 96.2292 76.4844 96.6094 77.1719 96.6094C78.5469 96.6094 79.2344 95.0729 79.2344 92C79.2344 88.9271 78.5469 87.3906 77.1719 87.3906C76.4844 87.3906 75.9896 87.7708 75.6875 88.5312C75.3854 89.2917 75.2344 90.4479 75.2344 92ZM82.2656 91.9688C82.2656 94.3646 81.8333 96.1667 80.9688 97.375C80.1146 98.5729 78.849 99.1719 77.1719 99.1719C75.5885 99.1719 74.3594 98.5521 73.4844 97.3125C72.6198 96.0625 72.1875 94.2812 72.1875 91.9688C72.1875 87.2083 73.849 84.8281 77.1719 84.8281C78.8073 84.8281 80.0625 85.4479 80.9375 86.6875C81.8229 87.9167 82.2656 89.6771 82.2656 91.9688ZM90.1094 101.125C90.1094 102.677 90.2604 103.839 90.5625 104.609C90.875 105.38 91.375 105.766 92.0625 105.766C93.4271 105.766 94.1094 104.219 94.1094 101.125C94.1094 98.0729 93.4271 96.5469 92.0625 96.5469C91.375 96.5469 90.875 96.9219 90.5625 97.6719C90.2604 98.4219 90.1094 99.5729 90.1094 101.125ZM97.1406 101.125C97.1406 103.521 96.7083 105.318 95.8438 106.516C94.9792 107.714 93.7188 108.312 92.0625 108.312C90.4792 108.312 89.25 107.698 88.375 106.469C87.5 105.229 87.0625 103.448 87.0625 101.125C87.0625 96.3646 88.7292 93.9844 92.0625 93.9844C93.6667 93.9844 94.9115 94.599 95.7969 95.8281C96.6927 97.0573 97.1406 98.8229 97.1406 101.125ZM92.5 85.1562L79.8281 108H76.7969L89.4688 85.1562H92.5Z" fill="#DB253A"/>
<g filter="url(#filter0_d)">
<rect x="158" y="59" width="367" height="133" rx="4" fill="white"/>
</g>
<path d="M328.453 127H326.586V117.18H323.227V115.578H331.812V117.18H328.453V127ZM341.039 122.664C341.039 124.076 340.677 125.177 339.953 125.969C339.229 126.76 338.221 127.156 336.93 127.156C336.122 127.156 335.409 126.974 334.789 126.609C334.169 126.245 333.693 125.721 333.359 125.039C333.026 124.357 332.859 123.565 332.859 122.664C332.859 121.263 333.219 120.169 333.938 119.383C334.656 118.596 335.669 118.203 336.977 118.203C338.227 118.203 339.216 118.607 339.945 119.414C340.674 120.216 341.039 121.299 341.039 122.664ZM334.75 122.664C334.75 124.659 335.487 125.656 336.961 125.656C338.419 125.656 339.148 124.659 339.148 122.664C339.148 120.69 338.414 119.703 336.945 119.703C336.174 119.703 335.615 119.958 335.266 120.469C334.922 120.979 334.75 121.711 334.75 122.664ZM346.375 125.672C346.823 125.672 347.271 125.602 347.719 125.461V126.844C347.516 126.932 347.253 127.005 346.93 127.062C346.612 127.125 346.281 127.156 345.938 127.156C344.198 127.156 343.328 126.24 343.328 124.406V119.75H342.148V118.938L343.414 118.266L344.039 116.438H345.172V118.359H347.633V119.75H345.172V124.375C345.172 124.818 345.281 125.146 345.5 125.359C345.724 125.568 346.016 125.672 346.375 125.672ZM354.859 127L354.492 125.797H354.43C354.013 126.323 353.594 126.682 353.172 126.875C352.75 127.062 352.208 127.156 351.547 127.156C350.698 127.156 350.034 126.927 349.555 126.469C349.081 126.01 348.844 125.362 348.844 124.523C348.844 123.633 349.174 122.961 349.836 122.508C350.497 122.055 351.505 121.807 352.859 121.766L354.352 121.719V121.258C354.352 120.706 354.221 120.294 353.961 120.023C353.706 119.747 353.307 119.609 352.766 119.609C352.323 119.609 351.898 119.674 351.492 119.805C351.086 119.935 350.695 120.089 350.32 120.266L349.727 118.953C350.195 118.708 350.708 118.523 351.266 118.398C351.823 118.268 352.349 118.203 352.844 118.203C353.943 118.203 354.771 118.443 355.328 118.922C355.891 119.401 356.172 120.154 356.172 121.18V127H354.859ZM352.125 125.75C352.792 125.75 353.326 125.565 353.727 125.195C354.133 124.82 354.336 124.297 354.336 123.625V122.875L353.227 122.922C352.362 122.953 351.732 123.099 351.336 123.359C350.945 123.615 350.75 124.008 350.75 124.539C350.75 124.924 350.865 125.224 351.094 125.438C351.323 125.646 351.667 125.75 352.125 125.75ZM360.57 127H358.734V114.844H360.57V127Z" fill="black"/>
<path d="M304.953 161L303.812 157.828H299.445L298.328 161H296.359L300.633 149.531H302.664L306.938 161H304.953ZM303.32 156.219L302.25 153.109C302.172 152.901 302.062 152.573 301.922 152.125C301.786 151.677 301.693 151.349 301.641 151.141C301.5 151.781 301.294 152.482 301.023 153.242L299.992 156.219H303.32ZM310.219 161L306.938 152.359H308.875L310.633 157.383C310.935 158.227 311.117 158.909 311.18 159.43H311.242C311.289 159.055 311.471 158.372 311.789 157.383L313.547 152.359H315.5L312.203 161H310.219ZM324.109 152.359V153.367L322.633 153.641C322.768 153.823 322.88 154.047 322.969 154.312C323.057 154.578 323.102 154.859 323.102 155.156C323.102 156.047 322.794 156.747 322.18 157.258C321.565 157.768 320.719 158.023 319.641 158.023C319.365 158.023 319.115 158.003 318.891 157.961C318.495 158.206 318.297 158.492 318.297 158.82C318.297 159.018 318.388 159.167 318.57 159.266C318.758 159.365 319.099 159.414 319.594 159.414H321.102C322.055 159.414 322.779 159.617 323.273 160.023C323.768 160.43 324.016 161.016 324.016 161.781C324.016 162.76 323.612 163.516 322.805 164.047C321.997 164.578 320.831 164.844 319.305 164.844C318.128 164.844 317.229 164.635 316.609 164.219C315.99 163.802 315.68 163.208 315.68 162.438C315.68 161.906 315.846 161.458 316.18 161.094C316.518 160.734 316.99 160.484 317.594 160.344C317.349 160.24 317.146 160.073 316.984 159.844C316.828 159.609 316.75 159.365 316.75 159.109C316.75 158.786 316.841 158.513 317.023 158.289C317.206 158.065 317.477 157.844 317.836 157.625C317.388 157.432 317.023 157.12 316.742 156.688C316.466 156.25 316.328 155.74 316.328 155.156C316.328 154.219 316.622 153.492 317.211 152.977C317.805 152.461 318.648 152.203 319.742 152.203C319.987 152.203 320.242 152.221 320.508 152.258C320.779 152.289 320.982 152.323 321.117 152.359H324.109ZM317.32 162.344C317.32 162.74 317.497 163.044 317.852 163.258C318.211 163.471 318.714 163.578 319.359 163.578C320.359 163.578 321.104 163.435 321.594 163.148C322.083 162.862 322.328 162.482 322.328 162.008C322.328 161.633 322.193 161.365 321.922 161.203C321.656 161.047 321.159 160.969 320.43 160.969H319.039C318.513 160.969 318.094 161.091 317.781 161.336C317.474 161.586 317.32 161.922 317.32 162.344ZM318.109 155.156C318.109 155.698 318.247 156.115 318.523 156.406C318.805 156.698 319.206 156.844 319.727 156.844C320.789 156.844 321.32 156.276 321.32 155.141C321.32 154.578 321.188 154.146 320.922 153.844C320.661 153.536 320.263 153.383 319.727 153.383C319.195 153.383 318.792 153.534 318.516 153.836C318.245 154.138 318.109 154.578 318.109 155.156ZM334.258 161.156C333.164 161.156 332.315 160.763 331.711 159.977H331.602C331.674 160.706 331.711 161.148 331.711 161.305V164.844H329.875V152.359H331.359C331.401 152.521 331.487 152.906 331.617 153.516H331.711C332.284 152.641 333.143 152.203 334.289 152.203C335.367 152.203 336.206 152.594 336.805 153.375C337.409 154.156 337.711 155.253 337.711 156.664C337.711 158.076 337.404 159.177 336.789 159.969C336.18 160.76 335.336 161.156 334.258 161.156ZM333.812 153.703C333.083 153.703 332.549 153.917 332.211 154.344C331.878 154.771 331.711 155.453 331.711 156.391V156.664C331.711 157.716 331.878 158.479 332.211 158.953C332.544 159.422 333.089 159.656 333.844 159.656C334.479 159.656 334.969 159.396 335.312 158.875C335.656 158.354 335.828 157.612 335.828 156.648C335.828 155.68 335.656 154.948 335.312 154.453C334.974 153.953 334.474 153.703 333.812 153.703ZM343.617 161.156C342.273 161.156 341.221 160.766 340.461 159.984C339.706 159.198 339.328 158.117 339.328 156.742C339.328 155.331 339.68 154.221 340.383 153.414C341.086 152.607 342.052 152.203 343.281 152.203C344.422 152.203 345.323 152.549 345.984 153.242C346.646 153.935 346.977 154.888 346.977 156.102V157.094H341.219C341.245 157.932 341.471 158.578 341.898 159.031C342.326 159.479 342.927 159.703 343.703 159.703C344.214 159.703 344.688 159.656 345.125 159.562C345.568 159.464 346.042 159.302 346.547 159.078V160.57C346.099 160.784 345.646 160.935 345.188 161.023C344.729 161.112 344.206 161.156 343.617 161.156ZM343.281 153.594C342.698 153.594 342.229 153.779 341.875 154.148C341.526 154.518 341.318 155.057 341.25 155.766H345.172C345.161 155.052 344.99 154.513 344.656 154.148C344.323 153.779 343.865 153.594 343.281 153.594ZM353.445 152.203C353.815 152.203 354.12 152.229 354.359 152.281L354.18 153.992C353.919 153.93 353.648 153.898 353.367 153.898C352.633 153.898 352.036 154.138 351.578 154.617C351.125 155.096 350.898 155.719 350.898 156.484V161H349.062V152.359H350.5L350.742 153.883H350.836C351.122 153.367 351.495 152.958 351.953 152.656C352.417 152.354 352.914 152.203 353.445 152.203ZM363.039 161.156C361.961 161.156 361.12 160.766 360.516 159.984C359.911 159.203 359.609 158.107 359.609 156.695C359.609 155.279 359.914 154.177 360.523 153.391C361.138 152.599 361.987 152.203 363.07 152.203C364.206 152.203 365.07 152.622 365.664 153.461H365.758C365.669 152.841 365.625 152.352 365.625 151.992V148.844H367.469V161H366.031L365.711 159.867H365.625C365.036 160.727 364.174 161.156 363.039 161.156ZM363.531 159.672C364.286 159.672 364.836 159.461 365.18 159.039C365.523 158.612 365.701 157.922 365.711 156.969V156.711C365.711 155.622 365.534 154.849 365.18 154.391C364.826 153.932 364.271 153.703 363.516 153.703C362.87 153.703 362.372 153.966 362.023 154.492C361.674 155.013 361.5 155.758 361.5 156.727C361.5 157.685 361.669 158.417 362.008 158.922C362.346 159.422 362.854 159.672 363.531 159.672ZM375.5 161L375.133 159.797H375.07C374.654 160.323 374.234 160.682 373.812 160.875C373.391 161.062 372.849 161.156 372.188 161.156C371.339 161.156 370.674 160.927 370.195 160.469C369.721 160.01 369.484 159.362 369.484 158.523C369.484 157.633 369.815 156.961 370.477 156.508C371.138 156.055 372.146 155.807 373.5 155.766L374.992 155.719V155.258C374.992 154.706 374.862 154.294 374.602 154.023C374.346 153.747 373.948 153.609 373.406 153.609C372.964 153.609 372.539 153.674 372.133 153.805C371.727 153.935 371.336 154.089 370.961 154.266L370.367 152.953C370.836 152.708 371.349 152.523 371.906 152.398C372.464 152.268 372.99 152.203 373.484 152.203C374.583 152.203 375.411 152.443 375.969 152.922C376.531 153.401 376.812 154.154 376.812 155.18V161H375.5ZM372.766 159.75C373.432 159.75 373.966 159.565 374.367 159.195C374.773 158.82 374.977 158.297 374.977 157.625V156.875L373.867 156.922C373.003 156.953 372.372 157.099 371.977 157.359C371.586 157.615 371.391 158.008 371.391 158.539C371.391 158.924 371.505 159.224 371.734 159.438C371.964 159.646 372.307 159.75 372.766 159.75ZM378.062 152.359H380.062L381.82 157.258C382.086 157.956 382.263 158.612 382.352 159.227H382.414C382.461 158.94 382.547 158.594 382.672 158.188C382.797 157.776 383.458 155.833 384.656 152.359H386.641L382.945 162.148C382.273 163.945 381.154 164.844 379.586 164.844C379.18 164.844 378.784 164.799 378.398 164.711V163.258C378.674 163.32 378.99 163.352 379.344 163.352C380.229 163.352 380.852 162.839 381.211 161.812L381.531 161L378.062 152.359Z" fill="black"/>
<path d="M202.445 127H194.703V125.609L197.648 122.648C198.518 121.758 199.094 121.128 199.375 120.758C199.661 120.383 199.87 120.031 200 119.703C200.13 119.375 200.195 119.023 200.195 118.648C200.195 118.133 200.039 117.727 199.727 117.43C199.419 117.133 198.992 116.984 198.445 116.984C198.008 116.984 197.583 117.065 197.172 117.227C196.766 117.388 196.294 117.68 195.758 118.102L194.766 116.891C195.401 116.354 196.018 115.974 196.617 115.75C197.216 115.526 197.854 115.414 198.531 115.414C199.594 115.414 200.445 115.693 201.086 116.25C201.727 116.802 202.047 117.547 202.047 118.484C202.047 119 201.953 119.49 201.766 119.953C201.583 120.417 201.299 120.896 200.914 121.391C200.534 121.88 199.898 122.544 199.008 123.383L197.023 125.305V125.383H202.445V127ZM207.719 119.867C208.87 119.867 209.781 120.172 210.453 120.781C211.125 121.391 211.461 122.221 211.461 123.273C211.461 124.492 211.078 125.445 210.312 126.133C209.552 126.815 208.469 127.156 207.062 127.156C205.786 127.156 204.784 126.951 204.055 126.539V124.875C204.477 125.115 204.961 125.299 205.508 125.43C206.055 125.56 206.562 125.625 207.031 125.625C207.859 125.625 208.49 125.44 208.922 125.07C209.354 124.701 209.57 124.159 209.57 123.445C209.57 122.081 208.701 121.398 206.961 121.398C206.716 121.398 206.414 121.424 206.055 121.477C205.695 121.523 205.38 121.578 205.109 121.641L204.289 121.156L204.727 115.578H210.664V117.211H206.344L206.086 120.039C206.268 120.008 206.49 119.971 206.75 119.93C207.016 119.888 207.339 119.867 207.719 119.867ZM221.133 124.508H219.594V127H217.805V124.508H212.586V123.094L217.805 115.547H219.594V122.984H221.133V124.508ZM217.805 122.984V120.117C217.805 119.096 217.831 118.26 217.883 117.609H217.82C217.674 117.953 217.445 118.37 217.133 118.859L214.297 122.984H217.805ZM234.172 127H232.328V121.672C232.328 121.01 232.203 120.518 231.953 120.195C231.703 119.867 231.312 119.703 230.781 119.703C230.073 119.703 229.552 119.935 229.219 120.398C228.891 120.857 228.727 121.622 228.727 122.695V127H226.891V118.359H228.328L228.586 119.492H228.68C228.919 119.081 229.266 118.763 229.719 118.539C230.177 118.315 230.68 118.203 231.227 118.203C232.555 118.203 233.435 118.656 233.867 119.562H233.992C234.247 119.135 234.607 118.802 235.07 118.562C235.534 118.323 236.065 118.203 236.664 118.203C237.695 118.203 238.445 118.464 238.914 118.984C239.388 119.505 239.625 120.299 239.625 121.367V127H237.789V121.672C237.789 121.01 237.661 120.518 237.406 120.195C237.156 119.867 236.766 119.703 236.234 119.703C235.521 119.703 234.997 119.927 234.664 120.375C234.336 120.818 234.172 121.5 234.172 122.422V127ZM244.023 127H242.188V118.359H244.023V127ZM242.078 116.07C242.078 115.742 242.167 115.49 242.344 115.312C242.526 115.135 242.784 115.047 243.117 115.047C243.44 115.047 243.69 115.135 243.867 115.312C244.049 115.49 244.141 115.742 244.141 116.07C244.141 116.383 244.049 116.63 243.867 116.812C243.69 116.99 243.44 117.078 243.117 117.078C242.784 117.078 242.526 116.99 242.344 116.812C242.167 116.63 242.078 116.383 242.078 116.07ZM248.492 127H246.656V114.844H248.492V127ZM254.898 127.156C253.555 127.156 252.503 126.766 251.742 125.984C250.987 125.198 250.609 124.117 250.609 122.742C250.609 121.331 250.961 120.221 251.664 119.414C252.367 118.607 253.333 118.203 254.562 118.203C255.703 118.203 256.604 118.549 257.266 119.242C257.927 119.935 258.258 120.888 258.258 122.102V123.094H252.5C252.526 123.932 252.753 124.578 253.18 125.031C253.607 125.479 254.208 125.703 254.984 125.703C255.495 125.703 255.969 125.656 256.406 125.562C256.849 125.464 257.323 125.302 257.828 125.078V126.57C257.38 126.784 256.927 126.935 256.469 127.023C256.01 127.112 255.487 127.156 254.898 127.156ZM254.562 119.594C253.979 119.594 253.51 119.779 253.156 120.148C252.807 120.518 252.599 121.057 252.531 121.766H256.453C256.443 121.052 256.271 120.513 255.938 120.148C255.604 119.779 255.146 119.594 254.562 119.594ZM266.148 124.539C266.148 125.383 265.841 126.031 265.227 126.484C264.612 126.932 263.732 127.156 262.586 127.156C261.435 127.156 260.51 126.982 259.812 126.633V125.047C260.828 125.516 261.773 125.75 262.648 125.75C263.779 125.75 264.344 125.409 264.344 124.727C264.344 124.508 264.281 124.326 264.156 124.18C264.031 124.034 263.826 123.883 263.539 123.727C263.253 123.57 262.854 123.393 262.344 123.195C261.349 122.81 260.674 122.424 260.32 122.039C259.971 121.654 259.797 121.154 259.797 120.539C259.797 119.799 260.094 119.227 260.688 118.82C261.286 118.409 262.099 118.203 263.125 118.203C264.141 118.203 265.102 118.409 266.008 118.82L265.414 120.203C264.482 119.818 263.698 119.625 263.062 119.625C262.094 119.625 261.609 119.901 261.609 120.453C261.609 120.724 261.734 120.953 261.984 121.141C262.24 121.328 262.792 121.586 263.641 121.914C264.354 122.19 264.872 122.443 265.195 122.672C265.518 122.901 265.758 123.167 265.914 123.469C266.07 123.766 266.148 124.122 266.148 124.539Z" fill="#D95F02"/>
<path d="M426.43 120.453C426.43 122.703 425.977 124.383 425.07 125.492C424.164 126.602 422.799 127.156 420.977 127.156C420.284 127.156 419.786 127.115 419.484 127.031V125.492C419.948 125.622 420.414 125.688 420.883 125.688C422.122 125.688 423.047 125.354 423.656 124.688C424.266 124.021 424.599 122.974 424.656 121.547H424.562C424.255 122.016 423.883 122.354 423.445 122.562C423.013 122.771 422.505 122.875 421.922 122.875C420.911 122.875 420.117 122.56 419.539 121.93C418.961 121.299 418.672 120.435 418.672 119.336C418.672 118.143 419.005 117.195 419.672 116.492C420.344 115.784 421.258 115.43 422.414 115.43C423.227 115.43 423.935 115.628 424.539 116.023C425.143 116.419 425.609 116.995 425.938 117.75C426.266 118.5 426.43 119.401 426.43 120.453ZM422.445 116.953C421.81 116.953 421.323 117.161 420.984 117.578C420.646 117.99 420.477 118.57 420.477 119.32C420.477 119.971 420.633 120.484 420.945 120.859C421.263 121.229 421.742 121.414 422.383 121.414C423.003 121.414 423.523 121.229 423.945 120.859C424.367 120.49 424.578 120.057 424.578 119.562C424.578 119.099 424.487 118.667 424.305 118.266C424.128 117.859 423.878 117.539 423.555 117.305C423.232 117.07 422.862 116.953 422.445 116.953ZM427.875 122.133C427.875 117.664 429.695 115.43 433.336 115.43C433.909 115.43 434.393 115.474 434.789 115.562V117.094C434.393 116.979 433.935 116.922 433.414 116.922C432.19 116.922 431.271 117.25 430.656 117.906C430.042 118.562 429.708 119.615 429.656 121.062H429.75C429.995 120.641 430.339 120.315 430.781 120.086C431.224 119.852 431.745 119.734 432.344 119.734C433.38 119.734 434.188 120.052 434.766 120.688C435.344 121.323 435.633 122.185 435.633 123.273C435.633 124.471 435.297 125.419 434.625 126.117C433.958 126.81 433.047 127.156 431.891 127.156C431.073 127.156 430.362 126.961 429.758 126.57C429.154 126.174 428.688 125.602 428.359 124.852C428.036 124.096 427.875 123.19 427.875 122.133ZM431.859 125.641C432.49 125.641 432.974 125.438 433.312 125.031C433.656 124.625 433.828 124.044 433.828 123.289C433.828 122.633 433.667 122.117 433.344 121.742C433.026 121.367 432.547 121.18 431.906 121.18C431.51 121.18 431.146 121.266 430.812 121.438C430.479 121.604 430.216 121.836 430.023 122.133C429.831 122.424 429.734 122.724 429.734 123.031C429.734 123.766 429.932 124.385 430.328 124.891C430.729 125.391 431.24 125.641 431.859 125.641ZM449.031 127H447.188V121.672C447.188 121.01 447.062 120.518 446.812 120.195C446.562 119.867 446.172 119.703 445.641 119.703C444.932 119.703 444.411 119.935 444.078 120.398C443.75 120.857 443.586 121.622 443.586 122.695V127H441.75V118.359H443.188L443.445 119.492H443.539C443.779 119.081 444.125 118.763 444.578 118.539C445.036 118.315 445.539 118.203 446.086 118.203C447.414 118.203 448.294 118.656 448.727 119.562H448.852C449.107 119.135 449.466 118.802 449.93 118.562C450.393 118.323 450.924 118.203 451.523 118.203C452.555 118.203 453.305 118.464 453.773 118.984C454.247 119.505 454.484 120.299 454.484 121.367V127H452.648V121.672C452.648 121.01 452.521 120.518 452.266 120.195C452.016 119.867 451.625 119.703 451.094 119.703C450.38 119.703 449.857 119.927 449.523 120.375C449.195 120.818 449.031 121.5 449.031 122.422V127ZM458.883 127H457.047V118.359H458.883V127ZM456.938 116.07C456.938 115.742 457.026 115.49 457.203 115.312C457.385 115.135 457.643 115.047 457.977 115.047C458.299 115.047 458.549 115.135 458.727 115.312C458.909 115.49 459 115.742 459 116.07C459 116.383 458.909 116.63 458.727 116.812C458.549 116.99 458.299 117.078 457.977 117.078C457.643 117.078 457.385 116.99 457.203 116.812C457.026 116.63 456.938 116.383 456.938 116.07ZM463.352 127H461.516V114.844H463.352V127ZM469.758 127.156C468.414 127.156 467.362 126.766 466.602 125.984C465.846 125.198 465.469 124.117 465.469 122.742C465.469 121.331 465.82 120.221 466.523 119.414C467.227 118.607 468.193 118.203 469.422 118.203C470.562 118.203 471.464 118.549 472.125 119.242C472.786 119.935 473.117 120.888 473.117 122.102V123.094H467.359C467.385 123.932 467.612 124.578 468.039 125.031C468.466 125.479 469.068 125.703 469.844 125.703C470.354 125.703 470.828 125.656 471.266 125.562C471.708 125.464 472.182 125.302 472.688 125.078V126.57C472.24 126.784 471.786 126.935 471.328 127.023C470.87 127.112 470.346 127.156 469.758 127.156ZM469.422 119.594C468.839 119.594 468.37 119.779 468.016 120.148C467.667 120.518 467.458 121.057 467.391 121.766H471.312C471.302 121.052 471.13 120.513 470.797 120.148C470.464 119.779 470.005 119.594 469.422 119.594ZM481.008 124.539C481.008 125.383 480.701 126.031 480.086 126.484C479.471 126.932 478.591 127.156 477.445 127.156C476.294 127.156 475.37 126.982 474.672 126.633V125.047C475.688 125.516 476.633 125.75 477.508 125.75C478.638 125.75 479.203 125.409 479.203 124.727C479.203 124.508 479.141 124.326 479.016 124.18C478.891 124.034 478.685 123.883 478.398 123.727C478.112 123.57 477.714 123.393 477.203 123.195C476.208 122.81 475.534 122.424 475.18 122.039C474.831 121.654 474.656 121.154 474.656 120.539C474.656 119.799 474.953 119.227 475.547 118.82C476.146 118.409 476.958 118.203 477.984 118.203C479 118.203 479.961 118.409 480.867 118.82L480.273 120.203C479.341 119.818 478.557 119.625 477.922 119.625C476.953 119.625 476.469 119.901 476.469 120.453C476.469 120.724 476.594 120.953 476.844 121.141C477.099 121.328 477.651 121.586 478.5 121.914C479.214 122.19 479.732 122.443 480.055 122.672C480.378 122.901 480.617 123.167 480.773 123.469C480.93 123.766 481.008 124.122 481.008 124.539Z" fill="#1B9E77"/>
<path d="M221.445 89H213.703V87.6094L216.648 84.6484C217.518 83.7578 218.094 83.1276 218.375 82.7578C218.661 82.3828 218.87 82.0312 219 81.7031C219.13 81.375 219.195 81.0234 219.195 80.6484C219.195 80.1328 219.039 79.7266 218.727 79.4297C218.419 79.1328 217.992 78.9844 217.445 78.9844C217.008 78.9844 216.583 79.0651 216.172 79.2266C215.766 79.388 215.294 79.6797 214.758 80.1016L213.766 78.8906C214.401 78.3542 215.018 77.974 215.617 77.75C216.216 77.526 216.854 77.4141 217.531 77.4141C218.594 77.4141 219.445 77.6927 220.086 78.25C220.727 78.8021 221.047 79.5469 221.047 80.4844C221.047 81 220.953 81.4896 220.766 81.9531C220.583 82.4167 220.299 82.8958 219.914 83.3906C219.534 83.8802 218.898 84.5443 218.008 85.3828L216.023 87.3047V87.3828H221.445V89ZM230.586 83.2891C230.586 85.2734 230.266 86.7474 229.625 87.7109C228.99 88.6745 228.016 89.1562 226.703 89.1562C225.432 89.1562 224.469 88.6589 223.812 87.6641C223.156 86.6693 222.828 85.2109 222.828 83.2891C222.828 81.2734 223.146 79.7891 223.781 78.8359C224.422 77.8776 225.396 77.3984 226.703 77.3984C227.979 77.3984 228.945 77.8984 229.602 78.8984C230.258 79.8984 230.586 81.362 230.586 83.2891ZM224.688 83.2891C224.688 84.8464 224.846 85.9583 225.164 86.625C225.487 87.2917 226 87.625 226.703 87.625C227.406 87.625 227.919 87.2865 228.242 86.6094C228.57 85.9323 228.734 84.8255 228.734 83.2891C228.734 81.7578 228.57 80.651 228.242 79.9688C227.919 79.2812 227.406 78.9375 226.703 78.9375C226 78.9375 225.487 79.2734 225.164 79.9453C224.846 80.6172 224.688 81.7318 224.688 83.2891ZM237.375 89H235.539V81.625C235.539 80.7448 235.56 80.0469 235.602 79.5312C235.482 79.6562 235.333 79.7943 235.156 79.9453C234.984 80.0964 234.401 80.5755 233.406 81.3828L232.484 80.2188L235.844 77.5781H237.375V89ZM248.852 82.4531C248.852 84.7031 248.398 86.3828 247.492 87.4922C246.586 88.6016 245.221 89.1562 243.398 89.1562C242.706 89.1562 242.208 89.1146 241.906 89.0312V87.4922C242.37 87.6224 242.836 87.6875 243.305 87.6875C244.544 87.6875 245.469 87.3542 246.078 86.6875C246.688 86.0208 247.021 84.974 247.078 83.5469H246.984C246.677 84.0156 246.305 84.3542 245.867 84.5625C245.435 84.7708 244.927 84.875 244.344 84.875C243.333 84.875 242.539 84.5599 241.961 83.9297C241.383 83.2995 241.094 82.4349 241.094 81.3359C241.094 80.1432 241.427 79.1953 242.094 78.4922C242.766 77.7839 243.68 77.4297 244.836 77.4297C245.648 77.4297 246.357 77.6276 246.961 78.0234C247.565 78.4193 248.031 78.9948 248.359 79.75C248.688 80.5 248.852 81.401 248.852 82.4531ZM244.867 78.9531C244.232 78.9531 243.745 79.1615 243.406 79.5781C243.068 79.9896 242.898 80.5703 242.898 81.3203C242.898 81.9714 243.055 82.4844 243.367 82.8594C243.685 83.2292 244.164 83.4141 244.805 83.4141C245.424 83.4141 245.945 83.2292 246.367 82.8594C246.789 82.4896 247 82.0573 247 81.5625C247 81.099 246.909 80.6667 246.727 80.2656C246.549 79.8594 246.299 79.5391 245.977 79.3047C245.654 79.0703 245.284 78.9531 244.867 78.9531Z" fill="#D95F02"/>
<path d="M441.445 93H433.703V91.6094L436.648 88.6484C437.518 87.7578 438.094 87.1276 438.375 86.7578C438.661 86.3828 438.87 86.0312 439 85.7031C439.13 85.375 439.195 85.0234 439.195 84.6484C439.195 84.1328 439.039 83.7266 438.727 83.4297C438.419 83.1328 437.992 82.9844 437.445 82.9844C437.008 82.9844 436.583 83.0651 436.172 83.2266C435.766 83.388 435.294 83.6797 434.758 84.1016L433.766 82.8906C434.401 82.3542 435.018 81.974 435.617 81.75C436.216 81.526 436.854 81.4141 437.531 81.4141C438.594 81.4141 439.445 81.6927 440.086 82.25C440.727 82.8021 441.047 83.5469 441.047 84.4844C441.047 85 440.953 85.4896 440.766 85.9531C440.583 86.4167 440.299 86.8958 439.914 87.3906C439.534 87.8802 438.898 88.5443 438.008 89.3828L436.023 91.3047V91.3828H441.445V93ZM450.586 87.2891C450.586 89.2734 450.266 90.7474 449.625 91.7109C448.99 92.6745 448.016 93.1562 446.703 93.1562C445.432 93.1562 444.469 92.6589 443.812 91.6641C443.156 90.6693 442.828 89.2109 442.828 87.2891C442.828 85.2734 443.146 83.7891 443.781 82.8359C444.422 81.8776 445.396 81.3984 446.703 81.3984C447.979 81.3984 448.945 81.8984 449.602 82.8984C450.258 83.8984 450.586 85.362 450.586 87.2891ZM444.688 87.2891C444.688 88.8464 444.846 89.9583 445.164 90.625C445.487 91.2917 446 91.625 446.703 91.625C447.406 91.625 447.919 91.2865 448.242 90.6094C448.57 89.9323 448.734 88.8255 448.734 87.2891C448.734 85.7578 448.57 84.651 448.242 83.9688C447.919 83.2812 447.406 82.9375 446.703 82.9375C446 82.9375 445.487 83.2734 445.164 83.9453C444.846 84.6172 444.688 85.7318 444.688 87.2891ZM459.727 93H451.984V91.6094L454.93 88.6484C455.799 87.7578 456.375 87.1276 456.656 86.7578C456.943 86.3828 457.151 86.0312 457.281 85.7031C457.411 85.375 457.477 85.0234 457.477 84.6484C457.477 84.1328 457.32 83.7266 457.008 83.4297C456.701 83.1328 456.273 82.9844 455.727 82.9844C455.289 82.9844 454.865 83.0651 454.453 83.2266C454.047 83.388 453.576 83.6797 453.039 84.1016L452.047 82.8906C452.682 82.3542 453.299 81.974 453.898 81.75C454.497 81.526 455.135 81.4141 455.812 81.4141C456.875 81.4141 457.727 81.6927 458.367 82.25C459.008 82.8021 459.328 83.5469 459.328 84.4844C459.328 85 459.234 85.4896 459.047 85.9531C458.865 86.4167 458.581 86.8958 458.195 87.3906C457.815 87.8802 457.18 88.5443 456.289 89.3828L454.305 91.3047V91.3828H459.727V93ZM468.867 87.2891C468.867 89.2734 468.547 90.7474 467.906 91.7109C467.271 92.6745 466.297 93.1562 464.984 93.1562C463.714 93.1562 462.75 92.6589 462.094 91.6641C461.438 90.6693 461.109 89.2109 461.109 87.2891C461.109 85.2734 461.427 83.7891 462.062 82.8359C462.703 81.8776 463.677 81.3984 464.984 81.3984C466.26 81.3984 467.227 81.8984 467.883 82.8984C468.539 83.8984 468.867 85.362 468.867 87.2891ZM462.969 87.2891C462.969 88.8464 463.128 89.9583 463.445 90.625C463.768 91.2917 464.281 91.625 464.984 91.625C465.688 91.625 466.201 91.2865 466.523 90.6094C466.852 89.9323 467.016 88.8255 467.016 87.2891C467.016 85.7578 466.852 84.651 466.523 83.9688C466.201 83.2812 465.688 82.9375 464.984 82.9375C464.281 82.9375 463.768 83.2734 463.445 83.9453C463.128 84.6172 462.969 85.7318 462.969 87.2891Z" fill="#1B9E77"/>
<path d="M426.445 161H418.703V159.609L421.648 156.648C422.518 155.758 423.094 155.128 423.375 154.758C423.661 154.383 423.87 154.031 424 153.703C424.13 153.375 424.195 153.023 424.195 152.648C424.195 152.133 424.039 151.727 423.727 151.43C423.419 151.133 422.992 150.984 422.445 150.984C422.008 150.984 421.583 151.065 421.172 151.227C420.766 151.388 420.294 151.68 419.758 152.102L418.766 150.891C419.401 150.354 420.018 149.974 420.617 149.75C421.216 149.526 421.854 149.414 422.531 149.414C423.594 149.414 424.445 149.693 425.086 150.25C425.727 150.802 426.047 151.547 426.047 152.484C426.047 153 425.953 153.49 425.766 153.953C425.583 154.417 425.299 154.896 424.914 155.391C424.534 155.88 423.898 156.544 423.008 157.383L421.023 159.305V159.383H426.445V161ZM428.18 160.023C428.18 159.643 428.279 159.352 428.477 159.148C428.674 158.945 428.961 158.844 429.336 158.844C429.716 158.844 430.005 158.951 430.203 159.164C430.401 159.372 430.5 159.659 430.5 160.023C430.5 160.393 430.398 160.688 430.195 160.906C429.997 161.12 429.711 161.227 429.336 161.227C428.961 161.227 428.674 161.12 428.477 160.906C428.279 160.693 428.18 160.398 428.18 160.023ZM439.992 155.289C439.992 157.273 439.672 158.747 439.031 159.711C438.396 160.674 437.422 161.156 436.109 161.156C434.839 161.156 433.875 160.659 433.219 159.664C432.562 158.669 432.234 157.211 432.234 155.289C432.234 153.273 432.552 151.789 433.188 150.836C433.828 149.878 434.802 149.398 436.109 149.398C437.385 149.398 438.352 149.898 439.008 150.898C439.664 151.898 439.992 153.362 439.992 155.289ZM434.094 155.289C434.094 156.846 434.253 157.958 434.57 158.625C434.893 159.292 435.406 159.625 436.109 159.625C436.812 159.625 437.326 159.286 437.648 158.609C437.977 157.932 438.141 156.826 438.141 155.289C438.141 153.758 437.977 152.651 437.648 151.969C437.326 151.281 436.812 150.938 436.109 150.938C435.406 150.938 434.893 151.273 434.57 151.945C434.253 152.617 434.094 153.732 434.094 155.289ZM445.266 153.867C446.417 153.867 447.328 154.172 448 154.781C448.672 155.391 449.008 156.221 449.008 157.273C449.008 158.492 448.625 159.445 447.859 160.133C447.099 160.815 446.016 161.156 444.609 161.156C443.333 161.156 442.331 160.951 441.602 160.539V158.875C442.023 159.115 442.508 159.299 443.055 159.43C443.602 159.56 444.109 159.625 444.578 159.625C445.406 159.625 446.036 159.44 446.469 159.07C446.901 158.701 447.117 158.159 447.117 157.445C447.117 156.081 446.247 155.398 444.508 155.398C444.263 155.398 443.961 155.424 443.602 155.477C443.242 155.523 442.927 155.578 442.656 155.641L441.836 155.156L442.273 149.578H448.211V151.211H443.891L443.633 154.039C443.815 154.008 444.036 153.971 444.297 153.93C444.562 153.888 444.885 153.867 445.266 153.867ZM462.578 161H460.734V155.672C460.734 155.01 460.609 154.518 460.359 154.195C460.109 153.867 459.719 153.703 459.188 153.703C458.479 153.703 457.958 153.935 457.625 154.398C457.297 154.857 457.133 155.622 457.133 156.695V161H455.297V152.359H456.734L456.992 153.492H457.086C457.326 153.081 457.672 152.763 458.125 152.539C458.583 152.315 459.086 152.203 459.633 152.203C460.961 152.203 461.841 152.656 462.273 153.562H462.398C462.654 153.135 463.013 152.802 463.477 152.562C463.94 152.323 464.471 152.203 465.07 152.203C466.102 152.203 466.852 152.464 467.32 152.984C467.794 153.505 468.031 154.299 468.031 155.367V161H466.195V155.672C466.195 155.01 466.068 154.518 465.812 154.195C465.562 153.867 465.172 153.703 464.641 153.703C463.927 153.703 463.404 153.927 463.07 154.375C462.742 154.818 462.578 155.5 462.578 156.422V161ZM472.43 161H470.594V152.359H472.43V161ZM470.484 150.07C470.484 149.742 470.573 149.49 470.75 149.312C470.932 149.135 471.19 149.047 471.523 149.047C471.846 149.047 472.096 149.135 472.273 149.312C472.456 149.49 472.547 149.742 472.547 150.07C472.547 150.383 472.456 150.63 472.273 150.812C472.096 150.99 471.846 151.078 471.523 151.078C471.19 151.078 470.932 150.99 470.75 150.812C470.573 150.63 470.484 150.383 470.484 150.07ZM476.898 161H475.062V148.844H476.898V161ZM483.305 161.156C481.961 161.156 480.909 160.766 480.148 159.984C479.393 159.198 479.016 158.117 479.016 156.742C479.016 155.331 479.367 154.221 480.07 153.414C480.773 152.607 481.74 152.203 482.969 152.203C484.109 152.203 485.01 152.549 485.672 153.242C486.333 153.935 486.664 154.888 486.664 156.102V157.094H480.906C480.932 157.932 481.159 158.578 481.586 159.031C482.013 159.479 482.615 159.703 483.391 159.703C483.901 159.703 484.375 159.656 484.812 159.562C485.255 159.464 485.729 159.302 486.234 159.078V160.57C485.786 160.784 485.333 160.935 484.875 161.023C484.417 161.112 483.893 161.156 483.305 161.156ZM482.969 153.594C482.385 153.594 481.917 153.779 481.562 154.148C481.214 154.518 481.005 155.057 480.938 155.766H484.859C484.849 155.052 484.677 154.513 484.344 154.148C484.01 153.779 483.552 153.594 482.969 153.594ZM494.555 158.539C494.555 159.383 494.247 160.031 493.633 160.484C493.018 160.932 492.138 161.156 490.992 161.156C489.841 161.156 488.917 160.982 488.219 160.633V159.047C489.234 159.516 490.18 159.75 491.055 159.75C492.185 159.75 492.75 159.409 492.75 158.727C492.75 158.508 492.688 158.326 492.562 158.18C492.438 158.034 492.232 157.883 491.945 157.727C491.659 157.57 491.26 157.393 490.75 157.195C489.755 156.81 489.081 156.424 488.727 156.039C488.378 155.654 488.203 155.154 488.203 154.539C488.203 153.799 488.5 153.227 489.094 152.82C489.693 152.409 490.505 152.203 491.531 152.203C492.547 152.203 493.508 152.409 494.414 152.82L493.82 154.203C492.888 153.818 492.104 153.625 491.469 153.625C490.5 153.625 490.016 153.901 490.016 154.453C490.016 154.724 490.141 154.953 490.391 155.141C490.646 155.328 491.198 155.586 492.047 155.914C492.76 156.19 493.279 156.443 493.602 156.672C493.924 156.901 494.164 157.167 494.32 157.469C494.477 157.766 494.555 158.122 494.555 158.539Z" fill="#1B9E77"/>
<path d="M202.578 153.867C203.729 153.867 204.641 154.172 205.312 154.781C205.984 155.391 206.32 156.221 206.32 157.273C206.32 158.492 205.938 159.445 205.172 160.133C204.411 160.815 203.328 161.156 201.922 161.156C200.646 161.156 199.643 160.951 198.914 160.539V158.875C199.336 159.115 199.82 159.299 200.367 159.43C200.914 159.56 201.422 159.625 201.891 159.625C202.719 159.625 203.349 159.44 203.781 159.07C204.214 158.701 204.43 158.159 204.43 157.445C204.43 156.081 203.56 155.398 201.82 155.398C201.576 155.398 201.273 155.424 200.914 155.477C200.555 155.523 200.24 155.578 199.969 155.641L199.148 155.156L199.586 149.578H205.523V151.211H201.203L200.945 154.039C201.128 154.008 201.349 153.971 201.609 153.93C201.875 153.888 202.198 153.867 202.578 153.867ZM208.18 160.023C208.18 159.643 208.279 159.352 208.477 159.148C208.674 158.945 208.961 158.844 209.336 158.844C209.716 158.844 210.005 158.951 210.203 159.164C210.401 159.372 210.5 159.659 210.5 160.023C210.5 160.393 210.398 160.688 210.195 160.906C209.997 161.12 209.711 161.227 209.336 161.227C208.961 161.227 208.674 161.12 208.477 160.906C208.279 160.693 208.18 160.398 208.18 160.023ZM220.398 158.508H218.859V161H217.07V158.508H211.852V157.094L217.07 149.547H218.859V156.984H220.398V158.508ZM217.07 156.984V154.117C217.07 153.096 217.096 152.26 217.148 151.609H217.086C216.94 151.953 216.711 152.37 216.398 152.859L213.562 156.984H217.07ZM233.438 161H231.594V155.672C231.594 155.01 231.469 154.518 231.219 154.195C230.969 153.867 230.578 153.703 230.047 153.703C229.339 153.703 228.818 153.935 228.484 154.398C228.156 154.857 227.992 155.622 227.992 156.695V161H226.156V152.359H227.594L227.852 153.492H227.945C228.185 153.081 228.531 152.763 228.984 152.539C229.443 152.315 229.945 152.203 230.492 152.203C231.82 152.203 232.701 152.656 233.133 153.562H233.258C233.513 153.135 233.872 152.802 234.336 152.562C234.799 152.323 235.331 152.203 235.93 152.203C236.961 152.203 237.711 152.464 238.18 152.984C238.654 153.505 238.891 154.299 238.891 155.367V161H237.055V155.672C237.055 155.01 236.927 154.518 236.672 154.195C236.422 153.867 236.031 153.703 235.5 153.703C234.786 153.703 234.263 153.927 233.93 154.375C233.602 154.818 233.438 155.5 233.438 156.422V161ZM243.289 161H241.453V152.359H243.289V161ZM241.344 150.07C241.344 149.742 241.432 149.49 241.609 149.312C241.792 149.135 242.049 149.047 242.383 149.047C242.706 149.047 242.956 149.135 243.133 149.312C243.315 149.49 243.406 149.742 243.406 150.07C243.406 150.383 243.315 150.63 243.133 150.812C242.956 150.99 242.706 151.078 242.383 151.078C242.049 151.078 241.792 150.99 241.609 150.812C241.432 150.63 241.344 150.383 241.344 150.07ZM247.758 161H245.922V148.844H247.758V161ZM254.164 161.156C252.82 161.156 251.768 160.766 251.008 159.984C250.253 159.198 249.875 158.117 249.875 156.742C249.875 155.331 250.227 154.221 250.93 153.414C251.633 152.607 252.599 152.203 253.828 152.203C254.969 152.203 255.87 152.549 256.531 153.242C257.193 153.935 257.523 154.888 257.523 156.102V157.094H251.766C251.792 157.932 252.018 158.578 252.445 159.031C252.872 159.479 253.474 159.703 254.25 159.703C254.76 159.703 255.234 159.656 255.672 159.562C256.115 159.464 256.589 159.302 257.094 159.078V160.57C256.646 160.784 256.193 160.935 255.734 161.023C255.276 161.112 254.753 161.156 254.164 161.156ZM253.828 153.594C253.245 153.594 252.776 153.779 252.422 154.148C252.073 154.518 251.865 155.057 251.797 155.766H255.719C255.708 155.052 255.536 154.513 255.203 154.148C254.87 153.779 254.411 153.594 253.828 153.594ZM265.414 158.539C265.414 159.383 265.107 160.031 264.492 160.484C263.878 160.932 262.997 161.156 261.852 161.156C260.701 161.156 259.776 160.982 259.078 160.633V159.047C260.094 159.516 261.039 159.75 261.914 159.75C263.044 159.75 263.609 159.409 263.609 158.727C263.609 158.508 263.547 158.326 263.422 158.18C263.297 158.034 263.091 157.883 262.805 157.727C262.518 157.57 262.12 157.393 261.609 157.195C260.615 156.81 259.94 156.424 259.586 156.039C259.237 155.654 259.062 155.154 259.062 154.539C259.062 153.799 259.359 153.227 259.953 152.82C260.552 152.409 261.365 152.203 262.391 152.203C263.406 152.203 264.367 152.409 265.273 152.82L264.68 154.203C263.747 153.818 262.964 153.625 262.328 153.625C261.359 153.625 260.875 153.901 260.875 154.453C260.875 154.724 261 154.953 261.25 155.141C261.505 155.328 262.057 155.586 262.906 155.914C263.62 156.19 264.138 156.443 264.461 156.672C264.784 156.901 265.023 157.167 265.18 157.469C265.336 157.766 265.414 158.122 265.414 158.539Z" fill="#D95F02"/>
<path d="M141.855 22.29L144 20.145L141.855 18L136.5 23.355L123.645 10.5L129 5.145L126.855 3L124.71 5.145L122.565 3L119.355 6.21L117.21 4.065L115.065 6.21L117.21 8.355L114 11.565L116.145 13.71L114 15.855L116.145 18L121.5 12.645L134.355 25.5L129 30.855L131.145 33L133.29 30.855L135.435 33L138.645 29.79L140.79 31.935L142.935 29.79L140.79 27.645L144 24.435L141.855 22.29Z" fill="#3978CE"/>
<path d="M175.18 27H172.379V12.2695H167.34V9.86717H180.219V12.2695H175.18V27ZM194.059 20.4961C194.059 22.6133 193.516 24.2656 192.43 25.4531C191.344 26.6406 189.832 27.2344 187.895 27.2344C186.684 27.2344 185.613 26.9609 184.684 26.414C183.754 25.8672 183.039 25.082 182.539 24.0586C182.039 23.0351 181.789 21.8476 181.789 20.4961C181.789 18.3945 182.328 16.7539 183.406 15.5742C184.484 14.3945 186.004 13.8047 187.965 13.8047C189.84 13.8047 191.324 14.4101 192.418 15.6211C193.512 16.8242 194.059 18.4492 194.059 20.4961ZM184.625 20.4961C184.625 23.4883 185.73 24.9844 187.941 24.9844C190.129 24.9844 191.223 23.4883 191.223 20.4961C191.223 17.5351 190.121 16.0547 187.918 16.0547C186.762 16.0547 185.922 16.4375 185.398 17.2031C184.883 17.9687 184.625 19.0664 184.625 20.4961ZM202.062 25.0078C202.734 25.0078 203.406 24.9023 204.078 24.6914V26.7656C203.773 26.8984 203.379 27.0078 202.895 27.0937C202.418 27.1875 201.922 27.2344 201.406 27.2344C198.797 27.2344 197.492 25.8594 197.492 23.1094V16.125H195.723V14.9062L197.621 13.8984L198.559 11.1562H200.258V14.039H203.949V16.125H200.258V23.0625C200.258 23.7265 200.422 24.2187 200.75 24.539C201.086 24.8515 201.523 25.0078 202.062 25.0078ZM214.789 27L214.238 25.1953H214.145C213.52 25.9844 212.891 26.5234 212.258 26.8125C211.625 27.0937 210.812 27.2344 209.82 27.2344C208.547 27.2344 207.551 26.8906 206.832 26.2031C206.121 25.5156 205.766 24.543 205.766 23.2851C205.766 21.9492 206.262 20.9414 207.254 20.2617C208.246 19.582 209.758 19.2109 211.789 19.1484L214.027 19.0781V18.3867C214.027 17.5586 213.832 16.9414 213.441 16.5351C213.059 16.1211 212.461 15.914 211.648 15.914C210.984 15.914 210.348 16.0117 209.738 16.207C209.129 16.4023 208.543 16.6328 207.98 16.8984L207.09 14.9297C207.793 14.5625 208.562 14.2851 209.398 14.0976C210.234 13.9023 211.023 13.8047 211.766 13.8047C213.414 13.8047 214.656 14.164 215.492 14.8828C216.336 15.6015 216.758 16.7305 216.758 18.2695V27H214.789ZM210.688 25.125C211.688 25.125 212.488 24.8476 213.09 24.293C213.699 23.7305 214.004 22.9453 214.004 21.9375V20.8125L212.34 20.8828C211.043 20.9297 210.098 21.1484 209.504 21.539C208.918 21.9219 208.625 22.5117 208.625 23.3086C208.625 23.8867 208.797 24.3359 209.141 24.6562C209.484 24.9687 210 25.125 210.688 25.125ZM223.355 27H220.602V8.76561H223.355V27ZM237.91 27.2344C236.293 27.2344 235.031 26.6484 234.125 25.4765C233.219 24.3047 232.766 22.6601 232.766 20.543C232.766 18.418 233.223 16.7656 234.137 15.5859C235.059 14.3984 236.332 13.8047 237.957 13.8047C239.66 13.8047 240.957 14.4336 241.848 15.6914H241.988C241.855 14.7617 241.789 14.0273 241.789 13.4883V8.76561H244.555V27H242.398L241.918 25.3008H241.789C240.906 26.5898 239.613 27.2344 237.91 27.2344ZM238.648 25.0078C239.781 25.0078 240.605 24.6914 241.121 24.0586C241.637 23.418 241.902 22.3828 241.918 20.9531V20.5664C241.918 18.9336 241.652 17.7734 241.121 17.0859C240.59 16.3984 239.758 16.0547 238.625 16.0547C237.656 16.0547 236.91 16.4492 236.387 17.2383C235.863 18.0195 235.602 19.1367 235.602 20.5898C235.602 22.0273 235.855 23.125 236.363 23.8828C236.871 24.6328 237.633 25.0078 238.648 25.0078ZM251.246 27H248.492V14.039H251.246V27ZM248.328 10.6055C248.328 10.1133 248.461 9.73436 248.727 9.46873C249 9.20311 249.387 9.0703 249.887 9.0703C250.371 9.0703 250.746 9.20311 251.012 9.46873C251.285 9.73436 251.422 10.1133 251.422 10.6055C251.422 11.0742 251.285 11.4453 251.012 11.7187C250.746 11.9844 250.371 12.1172 249.887 12.1172C249.387 12.1172 249 11.9844 248.727 11.7187C248.461 11.4453 248.328 11.0742 248.328 10.6055ZM263.902 23.3086C263.902 24.5742 263.441 25.5469 262.52 26.2265C261.598 26.8984 260.277 27.2344 258.559 27.2344C256.832 27.2344 255.445 26.9726 254.398 26.4492V24.0703C255.922 24.7734 257.34 25.125 258.652 25.125C260.348 25.125 261.195 24.6133 261.195 23.5898C261.195 23.2617 261.102 22.9883 260.914 22.7695C260.727 22.5508 260.418 22.3242 259.988 22.0898C259.559 21.8555 258.961 21.5898 258.195 21.293C256.703 20.7148 255.691 20.1367 255.16 19.5586C254.637 18.9805 254.375 18.2305 254.375 17.3086C254.375 16.1992 254.82 15.3398 255.711 14.7305C256.609 14.1133 257.828 13.8047 259.367 13.8047C260.891 13.8047 262.332 14.1133 263.691 14.7305L262.801 16.8047C261.402 16.2265 260.227 15.9375 259.273 15.9375C257.82 15.9375 257.094 16.3515 257.094 17.1797C257.094 17.5859 257.281 17.9297 257.656 18.2109C258.039 18.4922 258.867 18.8789 260.141 19.3711C261.211 19.7851 261.988 20.164 262.473 20.5078C262.957 20.8515 263.316 21.25 263.551 21.7031C263.785 22.1484 263.902 22.6836 263.902 23.3086ZM271.719 25.0078C272.391 25.0078 273.062 24.9023 273.734 24.6914V26.7656C273.43 26.8984 273.035 27.0078 272.551 27.0937C272.074 27.1875 271.578 27.2344 271.062 27.2344C268.453 27.2344 267.148 25.8594 267.148 23.1094V16.125H265.379V14.9062L267.277 13.8984L268.215 11.1562H269.914V14.039H273.605V16.125H269.914V23.0625C269.914 23.7265 270.078 24.2187 270.406 24.539C270.742 24.8515 271.18 25.0078 271.719 25.0078ZM284.445 27L283.895 25.1953H283.801C283.176 25.9844 282.547 26.5234 281.914 26.8125C281.281 27.0937 280.469 27.2344 279.477 27.2344C278.203 27.2344 277.207 26.8906 276.488 26.2031C275.777 25.5156 275.422 24.543 275.422 23.2851C275.422 21.9492 275.918 20.9414 276.91 20.2617C277.902 19.582 279.414 19.2109 281.445 19.1484L283.684 19.0781V18.3867C283.684 17.5586 283.488 16.9414 283.098 16.5351C282.715 16.1211 282.117 15.914 281.305 15.914C280.641 15.914 280.004 16.0117 279.395 16.207C278.785 16.4023 278.199 16.6328 277.637 16.8984L276.746 14.9297C277.449 14.5625 278.219 14.2851 279.055 14.0976C279.891 13.9023 280.68 13.8047 281.422 13.8047C283.07 13.8047 284.312 14.164 285.148 14.8828C285.992 15.6015 286.414 16.7305 286.414 18.2695V27H284.445ZM280.344 25.125C281.344 25.125 282.145 24.8476 282.746 24.293C283.355 23.7305 283.66 22.9453 283.66 21.9375V20.8125L281.996 20.8828C280.699 20.9297 279.754 21.1484 279.16 21.539C278.574 21.9219 278.281 22.5117 278.281 23.3086C278.281 23.8867 278.453 24.3359 278.797 24.6562C279.141 24.9687 279.656 25.125 280.344 25.125ZM301.66 27H298.895V19.0312C298.895 18.0312 298.691 17.2851 298.285 16.793C297.887 16.3008 297.25 16.0547 296.375 16.0547C295.211 16.0547 294.359 16.3984 293.82 17.0859C293.281 17.7734 293.012 18.9258 293.012 20.543V27H290.258V14.039H292.414L292.801 15.7383H292.941C293.332 15.1211 293.887 14.6445 294.605 14.3086C295.324 13.9726 296.121 13.8047 296.996 13.8047C300.105 13.8047 301.66 15.3867 301.66 18.5508V27ZM310.719 27.2344C308.758 27.2344 307.266 26.664 306.242 25.5234C305.227 24.375 304.719 22.7305 304.719 20.5898C304.719 18.4101 305.25 16.7344 306.312 15.5625C307.383 14.3906 308.926 13.8047 310.941 13.8047C312.309 13.8047 313.539 14.0586 314.633 14.5664L313.801 16.7812C312.637 16.3281 311.676 16.1015 310.918 16.1015C308.676 16.1015 307.555 17.5898 307.555 20.5664C307.555 22.0195 307.832 23.1133 308.387 23.8476C308.949 24.5742 309.77 24.9375 310.848 24.9375C312.074 24.9375 313.234 24.6328 314.328 24.0234V26.4258C313.836 26.7148 313.309 26.9219 312.746 27.0469C312.191 27.1719 311.516 27.2344 310.719 27.2344ZM323.035 27.2344C321.02 27.2344 319.441 26.6484 318.301 25.4765C317.168 24.2969 316.602 22.6758 316.602 20.6133C316.602 18.4961 317.129 16.832 318.184 15.6211C319.238 14.4101 320.688 13.8047 322.531 13.8047C324.242 13.8047 325.594 14.3242 326.586 15.3633C327.578 16.4023 328.074 17.832 328.074 19.6523V21.1406H319.438C319.477 22.3984 319.816 23.3672 320.457 24.0469C321.098 24.7187 322 25.0547 323.164 25.0547C323.93 25.0547 324.641 24.9844 325.297 24.8437C325.961 24.6953 326.672 24.4531 327.43 24.1172V26.3555C326.758 26.6758 326.078 26.9023 325.391 27.0351C324.703 27.168 323.918 27.2344 323.035 27.2344ZM322.531 15.8906C321.656 15.8906 320.953 16.168 320.422 16.7226C319.898 17.2773 319.586 18.0859 319.484 19.1484H325.367C325.352 18.0781 325.094 17.2695 324.594 16.7226C324.094 16.168 323.406 15.8906 322.531 15.8906Z" fill="#262E32"/>
<defs>
<filter id="filter0_d" x="149" y="51" width="385" height="151" filterUnits="userSpaceOnUse" color-interpolation-filters="sRGB">
<feFlood flood-opacity="0" result="BackgroundImageFix"/>
<feColorMatrix in="SourceAlpha" type="matrix" values="0 0 0 0 0 0 0 0 0 0 0 0 0 0 0 0 0 0 127 0"/>
<feOffset dy="1"/>
<feGaussianBlur stdDeviation="4.5"/>
<feColorMatrix type="matrix" values="0 0 0 0 0.14902 0 0 0 0 0.180392 0 0 0 0 0.196078 0 0 0 0.08 0"/>
<feBlend mode="normal" in2="BackgroundImageFix" result="effect1_dropShadow"/>
<feBlend mode="normal" in="SourceGraphic" in2="effect1_dropShadow" result="shape"/>
</filter>
</defs>
</svg>
